<?xml version="1.0" encoding="UTF-8" standalone="no"?>
<svg
   width="210"
   height="28"
   viewBox="0 0 210 28"
   fill="none"
   version="1.1"
   id="svg13"
   sodipodi:docname="logo-white.svg"
   xml:space="preserve"
   inkscape:version="1.3.2 (091e20e, 2023-11-25, custom)"
   xmlns:inkscape="http://www.inkscape.org/namespaces/inkscape"
   xmlns:sodipodi="http://sodipodi.sourceforge.net/DTD/sodipodi-0.dtd"
   xmlns="http://www.w3.org/2000/svg"
   xmlns:svg="http://www.w3.org/2000/svg"><sodipodi:namedview
     id="namedview13"
     pagecolor="#ffffff"
     bordercolor="#000000"
     borderopacity="0.25"
     inkscape:showpageshadow="2"
     inkscape:pageopacity="0.0"
     inkscape:pagecheckerboard="0"
     inkscape:deskcolor="#d1d1d1"
     inkscape:zoom="5.6568543"
     inkscape:cx="87.858017"
     inkscape:cy="12.462757"
     inkscape:window-width="1920"
     inkscape:window-height="974"
     inkscape:window-x="-11"
     inkscape:window-y="-11"
     inkscape:window-maximized="1"
     inkscape:current-layer="svg13" /><defs
     id="defs13"><clipPath
       id="clip0_0_383"><rect
         width="210"
         height="28"
         fill="white"
         id="rect13" /></clipPath></defs><path
     style="font-weight:bold;font-size:24px;font-family:Arial;-inkscape-font-specification:'Arial Bold';fill:#ffffff;fill-rule:evenodd;stroke:none"
     d="M 35.43149,22.542696 V 15.312227 L 29.138521,5.3630085 h 4.066406 l 4.042969,6.7968745 3.960938,-6.7968745 h 3.996093 l -6.316406,9.9726565 v 7.207031 z m 8.929687,-6.398438 q 0,-1.640625 0.808594,-3.175781 0.808594,-1.535156 2.285156,-2.34375 1.488282,-0.8085935 3.316407,-0.8085935 2.824218,0 4.628906,1.8398435 1.804687,1.828125 1.804687,4.628906 0,2.824219 -1.828125,4.6875 -1.816406,1.851563 -4.582031,1.851563 -1.710937,0 -3.269531,-0.773438 -1.546875,-0.773437 -2.355469,-2.261718 -0.808594,-1.5 -0.808594,-3.644532 z m 3.375,0.175782 q 0,1.851562 0.878907,2.835937 0.878906,0.984375 2.167968,0.984375 1.289063,0 2.15625,-0.984375 0.878907,-0.984375 0.878907,-2.859375 0,-1.828125 -0.878907,-2.8125 -0.867187,-0.984375 -2.15625,-0.984375 -1.289062,0 -2.167968,0.984375 -0.878907,0.984375 -0.878907,2.835938 z m 20.238282,6.222656 v -1.863281 q -0.679688,0.996093 -1.792969,1.570312 -1.101563,0.574219 -2.332031,0.574219 -1.253907,0 -2.25,-0.550781 Q 60.603365,21.722383 60.158052,20.72629 59.71274,19.730196 59.71274,17.972383 v -7.875 h 3.292969 v 5.71875 q 0,2.625 0.175781,3.222657 0.1875,0.585937 0.667969,0.9375 0.480468,0.339843 1.21875,0.339843 0.84375,0 1.511718,-0.457031 0.667969,-0.46875 0.914063,-1.148437 0.246094,-0.691407 0.246094,-3.363282 v -5.25 h 3.292968 v 12.445313 z m 9.621093,0 H 74.302584 V 10.097383 h 3.058593 v 1.769532 q 0.785157,-1.253907 1.40625,-1.652344 0.632813,-0.3984375 1.429688,-0.3984375 1.125,0 2.167969,0.6210935 l -1.019532,2.871094 q -0.832031,-0.539063 -1.546875,-0.539063 -0.691406,0 -1.171875,0.386719 -0.480468,0.375 -0.761718,1.371094 -0.269532,0.996094 -0.269532,4.171875 z m 17.203125,-6.316406 3.363282,1.066406 q -0.773438,2.8125 -2.578125,4.183594 -1.792969,1.359375 -4.558594,1.359375 -3.421875,0 -5.625,-2.332032 -2.203125,-2.34375 -2.203125,-6.398437 0,-4.2890625 2.214844,-6.65625 2.214843,-2.3789063 5.824218,-2.3789063 3.152344,0 5.121094,1.8632813 1.171875,1.1015625 1.757813,3.164062 L 94.68149,10.917696 Q 94.376802,9.5817585 93.404146,8.808321 92.443209,8.0348835 91.060396,8.0348835 q -1.910156,0 -3.105469,1.3710937 -1.183593,1.3710938 -1.183593,4.4414058 0,3.257813 1.171875,4.640625 1.171875,1.382813 3.046875,1.382813 1.382812,0 2.378906,-0.878906 0.996094,-0.878907 1.429687,-2.765625 z m 5.554683,-0.08203 q 0,-1.640625 0.8086,-3.175781 0.80859,-1.535156 2.28515,-2.34375 1.48829,-0.8085935 3.31641,-0.8085935 2.82422,0 4.62891,1.8398435 1.80468,1.828125 1.80468,4.628906 0,2.824219 -1.82812,4.6875 -1.81641,1.851563 -4.58203,1.851563 -1.71094,0 -3.26953,-0.773438 -1.54688,-0.773437 -2.35547,-2.261718 -0.8086,-1.5 -0.8086,-3.644532 z m 3.375,0.175782 q 0,1.851562 0.87891,2.835937 0.87891,0.984375 2.16797,0.984375 1.28906,0 2.15625,-0.984375 0.87891,-0.984375 0.87891,-2.859375 0,-1.828125 -0.87891,-2.8125 -0.86719,-0.984375 -2.15625,-0.984375 -1.28906,0 -2.16797,0.984375 -0.87891,0.984375 -0.87891,2.835938 z m 11.80079,-6.222657 h 3.03515 v 1.699219 q 1.62891,-1.9804685 3.87891,-1.9804685 1.19531,0 2.07422,0.4921875 0.8789,0.492187 1.4414,1.488281 0.82032,-0.996094 1.76953,-1.488281 0.94922,-0.4921875 2.02735,-0.4921875 1.37109,0 2.32031,0.5624995 0.94922,0.550782 1.41797,1.628907 0.33984,0.796875 0.33984,2.578125 v 7.957031 h -3.29297 v -7.113281 q 0,-1.851563 -0.33984,-2.390625 -0.45703,-0.703125 -1.40625,-0.703125 -0.69141,0 -1.30078,0.421875 -0.60938,0.421875 -0.87891,1.242187 -0.26953,0.808594 -0.26953,2.566406 v 5.976563 h -3.29297 v -6.820313 q 0,-1.816406 -0.17578,-2.34375 -0.17578,-0.527343 -0.55078,-0.785156 -0.36328,-0.257812 -0.99609,-0.257812 -0.76172,0 -1.3711,0.410156 -0.60937,0.410156 -0.8789,1.183594 -0.25782,0.773437 -0.25782,2.566406 v 6.046875 h -3.29296 z m 21.49218,0 h 3.07032 v 1.828125 q 0.59765,-0.9375 1.61718,-1.523437 1.01953,-0.5859375 2.26172,-0.5859375 2.16797,0 3.67969,1.6992185 1.51172,1.699219 1.51172,4.734375 0,3.117188 -1.52344,4.851563 -1.52344,1.722656 -3.69141,1.722656 -1.03125,0 -1.875,-0.410156 -0.83203,-0.410157 -1.75781,-1.40625 v 6.269531 h -3.29297 z m 3.25782,6.011719 q 0,2.097656 0.83203,3.105469 0.83203,0.996094 2.02734,0.996094 1.14844,0 1.91016,-0.914063 0.76172,-0.925781 0.76172,-3.023437 0,-1.957032 -0.78516,-2.90625 -0.78516,-0.949219 -1.94531,-0.949219 -1.20703,0 -2.00391,0.9375 -0.79687,0.925781 -0.79687,2.753906 z m 13.95703,-2.214844 -2.98828,-0.539062 q 0.5039,-1.804688 1.73437,-2.671875 1.23047,-0.8671875 3.65625,-0.8671875 2.20313,0 3.28125,0.5273435 1.07813,0.515625 1.51172,1.324219 0.44531,0.796875 0.44531,2.941406 l -0.0352,3.84375 q 0,1.640625 0.15234,2.425781 0.16406,0.773438 0.59766,1.664063 h -3.25782 q -0.1289,-0.328125 -0.3164,-0.972656 -0.082,-0.292969 -0.11719,-0.386719 -0.84375,0.820312 -1.80469,1.230469 -0.96094,0.410156 -2.05078,0.410156 -1.92187,0 -3.03516,-1.042969 -1.10156,-1.042969 -1.10156,-2.636719 0,-1.054687 0.50391,-1.875 0.5039,-0.832031 1.40625,-1.265625 0.91406,-0.445312 2.625,-0.773437 2.30859,-0.433594 3.19922,-0.808594 v -0.328125 q 0,-0.949219 -0.46875,-1.347656 -0.46875,-0.410156 -1.76953,-0.410156 -0.87891,0 -1.3711,0.351562 -0.49219,0.339844 -0.79687,1.207031 z m 4.40625,2.671875 q -0.63282,0.210938 -2.00391,0.503907 -1.37109,0.292968 -1.79297,0.574218 -0.64453,0.457032 -0.64453,1.160157 0,0.691406 0.51563,1.195312 0.51562,0.503906 1.3125,0.503906 0.89062,0 1.69921,-0.585937 0.59766,-0.445313 0.78516,-1.089844 0.12891,-0.421875 0.12891,-1.605469 z m 17.80078,5.976563 h -3.29297 v -6.351563 q 0,-2.015625 -0.21094,-2.601562 -0.21094,-0.597656 -0.6914,-0.925781 -0.46875,-0.328125 -1.13672,-0.328125 -0.85547,0 -1.53516,0.46875 -0.67969,0.46875 -0.9375,1.242187 -0.24609,0.773438 -0.24609,2.859375 v 5.636719 h -3.29297 V 10.097383 h 3.05859 v 1.828125 q 1.62891,-2.1093745 4.10156,-2.1093745 1.08985,0 1.99219,0.3984375 0.90235,0.386719 1.35938,0.996094 0.46875,0.609375 0.64453,1.382812 0.1875,0.773438 0.1875,2.214844 z m 1.78125,-12.445313 h 3.5039 l 2.97657,8.835938 2.90625,-8.835938 h 3.41015 l -4.39453,11.976563 -0.78515,2.167969 q -0.4336,1.089843 -0.83204,1.664062 -0.38671,0.574219 -0.90234,0.925781 -0.50391,0.363282 -1.25391,0.5625 -0.73828,0.199219 -1.67578,0.199219 -0.94922,0 -1.86328,-0.199219 l -0.29297,-2.578125 q 0.77344,0.152344 1.39453,0.152344 1.14844,0 1.69922,-0.679687 0.55078,-0.667969 0.84375,-1.710938 z"
     id="text13"
     aria-label="YourCompany" /><g
     style="fill:#ffffff;stroke-width:0.99999;stroke-dasharray:none;stroke:none"
     id="g14"
     transform="matrix(1.3909597,0,0,1.3909597,-2.7811487,-2.7785934)"><path
       d="m 22,14 h -2 v 2 h -6 v -3 h 2 V 11 H 14 V 6 A 2,2 0 0 0 12,4 H 4 V 2 H 2 v 8 H 4 V 8 h 6 v 3 H 8 v 2 h 2 v 5 a 2,2 0 0 0 2,2 h 8 v 2 h 2"
       id="path1-1"
       style="fill:#ffffff;stroke-width:0.99999;stroke-dasharray:none;stroke:none" /></g></svg>
